<svg width="253" height="247" viewBox="0 0 253 247" fill="none" xmlns="http://www.w3.org/2000/svg">
<g clip-path="url(#clip0_4685_4618)">
<path d="M160.615 55.5403H92.4424C90.8889 55.5421 89.3995 56.1601 88.301 57.2586C87.2025 58.3571 86.5845 59.8465 86.5826 61.4V212.914L85.8013 213.152L69.0775 218.274C68.2849 218.516 67.4288 218.433 66.6972 218.044C65.9655 217.655 65.4181 216.992 65.175 216.2L15.4293 53.7081C15.1872 52.9155 15.2698 52.0592 15.6587 51.3274C16.0477 50.5956 16.7113 50.0482 17.5037 49.8055L43.2751 41.9143L117.987 19.0456L143.758 11.1544C144.151 11.0337 144.563 10.9916 144.971 11.0303C145.38 11.0691 145.777 11.188 146.139 11.3803C146.502 11.5726 146.823 11.8345 147.084 12.1511C147.345 12.4676 147.541 12.8325 147.661 13.2249L160.377 54.7589L160.615 55.5403Z" fill="#F2F2F2"/>
<path d="M175.491 54.7591L160.165 4.70103C159.911 3.86697 159.494 3.09132 158.939 2.41841C158.384 1.74551 157.702 1.18853 156.932 0.779306C156.162 0.370082 155.318 0.116629 154.45 0.0334408C153.582 -0.049748 152.706 0.0389575 151.872 0.294479L115.639 11.3851L40.931 34.2577L4.69807 45.3522C3.01488 45.8691 1.60553 47.0326 0.779353 48.5875C-0.0468203 50.1424 -0.222311 51.9616 0.291408 53.6458L52.67 224.724C53.0873 226.083 53.9294 227.273 55.0726 228.119C56.2158 228.965 57.6 229.422 59.0221 229.423C59.6803 229.424 60.3347 229.325 60.9635 229.13L85.8011 221.528L86.5825 221.286V220.47L85.8011 220.708L60.7331 228.384C59.2474 228.837 57.6427 228.682 56.271 227.953C54.8993 227.225 53.8726 225.982 53.4162 224.497L1.04162 53.4153C0.815467 52.6796 0.736647 51.9066 0.80967 51.1405C0.882693 50.3743 1.10612 49.6301 1.46717 48.9505C1.82821 48.2708 2.31979 47.6691 2.91374 47.1796C3.50768 46.6902 4.19233 46.3228 4.92849 46.0984L41.1614 35.0039L115.87 12.1351L152.103 1.04063C152.661 0.870228 153.241 0.783343 153.825 0.782799C155.078 0.785612 156.297 1.18953 157.304 1.93539C158.311 2.68124 159.052 3.72985 159.419 4.92761L174.674 54.7591L174.917 55.5404H175.729L175.491 54.7591Z" fill="#3F3D56"/>
<path d="M47.9254 49.9333C47.1724 49.9328 46.4395 49.691 45.834 49.2434C45.2286 48.7957 44.7826 48.1659 44.5613 47.4462L39.5296 31.0108C39.3944 30.5693 39.3475 30.1055 39.3915 29.6459C39.4356 29.1863 39.5697 28.7398 39.7864 28.3321C40.003 27.9243 40.2978 27.5632 40.654 27.2694C41.0102 26.9756 41.4207 26.7549 41.8623 26.6198L110.593 5.5778C111.485 5.30572 112.448 5.39851 113.271 5.83581C114.094 6.2731 114.711 7.01917 114.984 7.91026L120.016 24.3458C120.288 25.2375 120.195 26.2005 119.758 27.0238C119.321 27.847 118.575 28.4631 117.684 28.7371L48.9525 49.779C48.6197 49.8812 48.2735 49.9332 47.9254 49.9333Z" fill="#404040"/>
<path d="M74.2837 17.5616C78.5987 17.5616 82.0968 14.0636 82.0968 9.74858C82.0968 5.43356 78.5987 1.93555 74.2837 1.93555C69.9687 1.93555 66.4707 5.43356 66.4707 9.74858C66.4707 14.0636 69.9687 17.5616 74.2837 17.5616Z" fill="#404040"/>
<path d="M74.2836 14.6959C77.016 14.6959 79.2311 12.4809 79.2311 9.74848C79.2311 7.01608 77.016 4.80103 74.2836 4.80103C71.5512 4.80103 69.3362 7.01608 69.3362 9.74848C69.3362 12.4809 71.5512 14.6959 74.2836 14.6959Z" fill="white"/>
<path d="M235.421 227.427H103.381C102.5 227.426 101.656 227.076 101.034 226.453C100.411 225.831 100.061 224.987 100.06 224.107V65.8928C100.061 65.0124 100.411 64.1684 101.034 63.5459C101.656 62.9234 102.5 62.5732 103.381 62.5723H235.421C236.301 62.5733 237.145 62.9234 237.768 63.5459C238.39 64.1685 238.74 65.0125 238.741 65.8928V224.107C238.74 224.987 238.39 225.831 237.768 226.453C237.145 227.076 236.301 227.426 235.421 227.427Z" fill="#E6E6E6"/>
<path d="M174.674 54.759H92.4423C90.6818 54.7615 88.9941 55.462 87.7491 56.7069C86.5042 57.9518 85.8038 59.6396 85.8013 61.4001V220.708L86.5826 220.469V61.4001C86.5845 59.8466 87.2024 58.3572 88.3009 57.2587C89.3995 56.1602 90.8888 55.5422 92.4423 55.5403H174.917L174.674 54.759ZM246.359 54.759H92.4423C90.6818 54.7615 88.9941 55.462 87.7491 56.7069C86.5042 57.9518 85.8038 59.6396 85.8013 61.4001V240.318C85.8038 242.079 86.5042 243.767 87.7491 245.012C88.9941 246.257 90.6818 246.957 92.4423 246.96H246.359C248.12 246.957 249.807 246.257 251.052 245.012C252.297 243.767 252.998 242.079 253 240.318V61.4001C252.998 59.6396 252.297 57.9518 251.052 56.7069C249.807 55.462 248.12 54.7615 246.359 54.759ZM252.219 240.318C252.217 241.872 251.599 243.361 250.5 244.46C249.402 245.558 247.913 246.176 246.359 246.178H92.4423C90.8888 246.176 89.3995 245.558 88.3009 244.46C87.2024 243.361 86.5845 241.872 86.5826 240.318V61.4001C86.5845 59.8466 87.2024 58.3572 88.3009 57.2587C89.3995 56.1602 90.8888 55.5422 92.4423 55.5403H246.359C247.913 55.5422 249.402 56.1602 250.5 57.2587C251.599 58.3572 252.217 59.8466 252.219 61.4001V240.318Z" fill="#3F3D56"/>
<path d="M205.341 71.9479H133.461C132.529 71.9469 131.635 71.5761 130.976 70.917C130.317 70.2579 129.946 69.3642 129.945 68.4321V51.2434C129.946 50.3113 130.317 49.4176 130.976 48.7585C131.635 48.0993 132.529 47.7286 133.461 47.7275H205.341C206.273 47.7286 207.166 48.0993 207.825 48.7585C208.485 49.4176 208.855 50.3113 208.856 51.2434V68.4321C208.855 69.3642 208.485 70.2579 207.825 70.917C207.166 71.5761 206.273 71.9469 205.341 71.9479Z" fill="#404040"/>
<path d="M169.401 48.8995C173.716 48.8995 177.214 45.4015 177.214 41.0865C177.214 36.7714 173.716 33.2734 169.401 33.2734C165.086 33.2734 161.588 36.7714 161.588 41.0865C161.588 45.4015 165.086 48.8995 169.401 48.8995Z" fill="#404040"/>
<path d="M169.401 45.8451C172.029 45.8451 174.16 43.7145 174.16 41.0863C174.16 38.458 172.029 36.3274 169.401 36.3274C166.772 36.3274 164.642 38.458 164.642 41.0863C164.642 43.7145 166.772 45.8451 169.401 45.8451Z" fill="white"/>
</g>
<defs>
<clipPath id="clip0_4685_4618">
<rect width="253" height="246.96" fill="white"/>
</clipPath>
</defs>
</svg>
