<svg width="183" height="183" viewBox="0 0 183 183" fill="none" xmlns="http://www.w3.org/2000/svg">
<circle cx="90.5" cy="90.5" r="69.5" fill="white"/>
<path fill-rule="evenodd" clip-rule="evenodd" d="M0 91.386C0 141.857 40.9149 182.772 91.386 182.772C141.857 182.772 182.772 141.857 182.772 91.386C182.772 40.9149 141.857 0 91.386 0C40.9149 0 0 40.9149 0 91.386ZM41.7765 104.442C41.7765 117.42 52.2975 127.941 65.2758 127.941C78.2541 127.941 88.775 117.42 88.775 104.442C88.775 91.4636 78.2541 80.9426 65.2758 80.9426C52.2975 80.9426 41.7765 91.4636 41.7765 104.442ZM117.496 127.941C104.518 127.941 93.997 117.42 93.997 104.442C93.997 91.4635 104.518 80.9425 117.496 80.9425C130.475 80.9425 140.996 91.4635 140.996 104.442C140.996 117.42 130.475 127.941 117.496 127.941ZM140.996 66.5811C140.996 61.534 136.904 57.4425 131.857 57.4425H50.9151C45.868 57.4425 41.7765 61.534 41.7765 66.5811C41.7765 71.6282 45.868 75.7197 50.9151 75.7197H131.857C136.904 75.7197 140.996 71.6282 140.996 66.5811Z" fill="#4F46E5"/>
</svg>
