<svg width="163" height="40" viewBox="0 0 163 40" fill="none" xmlns="http://www.w3.org/2000/svg">
<path fill-rule="evenodd" clip-rule="evenodd" d="M45.6528 14.8875C46.2187 15.587 47.0009 15.9367 47.9992 15.9367C48.7623 15.9367 49.3441 15.7523 49.7447 15.3835C50.1454 15.0083 50.3457 14.4646 50.3457 13.7525C50.3457 13.4727 50.3107 13.2278 50.2407 13.018C50.1771 12.8082 50.069 12.6269 49.9164 12.4743C49.7702 12.3217 49.5794 12.1977 49.3441 12.1023C49.1152 12.0006 48.8386 11.9147 48.5143 11.8448L47.9038 11.7208C47.6686 11.6699 47.4969 11.5872 47.3888 11.4728C47.287 11.3583 47.2362 11.1898 47.2362 10.9673C47.2362 10.7129 47.3029 10.5285 47.4365 10.414C47.5764 10.2996 47.7989 10.2423 48.1041 10.2423C48.3839 10.2423 48.6256 10.2932 48.8291 10.395C49.0389 10.4903 49.2265 10.6398 49.3918 10.8433L50.2694 9.96573C49.7797 9.35528 49.0643 9.05005 48.1232 9.05005C47.3856 9.05005 46.826 9.21856 46.4445 9.55558C46.0629 9.8926 45.8722 10.3854 45.8722 11.034C45.8722 11.5936 46.0153 12.0324 46.3014 12.3503C46.5939 12.6619 47.0486 12.8749 47.6654 12.9894L48.2758 13.1038C48.5175 13.1547 48.6955 13.2437 48.81 13.3709C48.9244 13.4981 48.9817 13.6761 48.9817 13.9051C48.9817 14.4646 48.6637 14.7444 48.0278 14.7444C47.411 14.7444 46.9119 14.4996 46.5303 14.01L45.6528 14.8875ZM51.3535 9.16451V15.8223H52.7175V13.0466H54.959V11.8639H52.7175V10.3568H55.3596V9.16451H51.3535ZM55.9922 14.8875C56.5581 15.587 57.3403 15.9367 58.3386 15.9367C59.1017 15.9367 59.6835 15.7523 60.0842 15.3835C60.4848 15.0083 60.6851 14.4646 60.6851 13.7525C60.6851 13.4727 60.6501 13.2278 60.5802 13.018C60.5166 12.8082 60.4085 12.6269 60.2558 12.4743C60.1096 12.3217 59.9188 12.1977 59.6835 12.1023C59.4546 12.0006 59.178 11.9147 58.8537 11.8448L58.2433 11.7208C58.008 11.6699 57.8363 11.5872 57.7282 11.4728C57.6264 11.3583 57.5756 11.1898 57.5756 10.9673C57.5756 10.7129 57.6423 10.5285 57.7759 10.414C57.9158 10.2996 58.1383 10.2423 58.4436 10.2423C58.7234 10.2423 58.965 10.2932 59.1685 10.395C59.3783 10.4903 59.5659 10.6398 59.7312 10.8433L60.6088 9.96573C60.1191 9.35528 59.4038 9.05005 58.4626 9.05005C57.725 9.05005 57.1654 9.21856 56.7839 9.55558C56.4024 9.8926 56.2116 10.3854 56.2116 11.034C56.2116 11.5936 56.3547 12.0324 56.6408 12.3503C56.9333 12.6619 57.388 12.8749 58.0048 12.9894L58.6153 13.1038C58.8569 13.1547 59.0349 13.2437 59.1494 13.3709C59.2639 13.4981 59.3211 13.6761 59.3211 13.9051C59.3211 14.4646 59.0031 14.7444 58.3673 14.7444C57.7504 14.7444 57.2513 14.4996 56.8697 14.01L55.9922 14.8875ZM46.2739 31.0592C46.808 31.5679 47.5584 31.8222 48.5249 31.8222H53.027C54.4641 31.8222 55.5897 31.4661 56.4036 30.754C57.2303 30.029 57.6436 29.0307 57.6436 27.7589C57.6436 27.1485 57.4465 26.5825 57.0522 26.0611C56.6707 25.5269 56.1747 25.139 55.5642 24.8974V24.8783C56.1111 24.624 56.5562 24.2488 56.8996 23.7528C57.243 23.2441 57.4147 22.6972 57.4147 22.1122C57.4147 20.9295 57.0141 20.0265 56.2128 19.4033C55.4116 18.7802 54.2734 18.4686 52.7981 18.4686H48.3914C47.4757 18.4686 46.7572 18.7166 46.2357 19.2126C45.727 19.7086 45.4727 20.4017 45.4727 21.2919V28.9226C45.4727 29.8383 45.7397 30.5505 46.2739 31.0592ZM54.3052 23.5048C53.9491 23.8228 53.4467 23.9817 52.7981 23.9817H47.9717V21.3491C47.9717 21.0566 48.0416 20.8277 48.1815 20.6624C48.3342 20.4971 48.5376 20.4144 48.792 20.4144H52.7981C53.4849 20.4144 53.9999 20.5543 54.3433 20.8341C54.6867 21.1139 54.8584 21.5463 54.8584 22.1313C54.8584 22.729 54.674 23.1869 54.3052 23.5048ZM55.0873 27.7971C55.0873 29.1833 54.3242 29.8764 52.7981 29.8764H48.792C48.5376 29.8764 48.3342 29.7938 48.1815 29.6284C48.0416 29.4631 47.9717 29.2342 47.9717 28.9417V25.9085H52.7981C53.523 25.9085 54.0826 26.0738 54.4769 26.4045C54.8838 26.7351 55.0873 27.1993 55.0873 27.7971ZM60.3951 30.8875C61.1327 31.6378 62.1565 32.013 63.4664 32.013C64.1914 32.013 64.8336 31.8795 65.3932 31.6124C65.9655 31.3326 66.4869 30.9002 66.9575 30.3152V30.8684C66.9575 31.2245 67.0656 31.5043 67.2818 31.7078C67.498 31.9113 67.7968 32.013 68.1784 32.013C68.5599 32.013 68.8524 31.9176 69.0559 31.7269C69.2721 31.5234 69.3802 31.2372 69.3802 30.8684V23.4285C69.3802 23.0724 69.2721 22.7926 69.0559 22.5891C68.8397 22.3856 68.5345 22.2839 68.1402 22.2839C67.7587 22.2839 67.4535 22.3856 67.2245 22.5891C66.9956 22.7926 66.8812 23.0724 66.8812 23.4285V26.8051C66.8812 27.8098 66.6268 28.5983 66.1181 29.1706C65.6221 29.7429 64.9226 30.029 64.0197 30.029C63.3202 30.029 62.7733 29.8256 62.3791 29.4186C61.9975 29.0116 61.8068 28.4457 61.8068 27.7208V23.4285C61.8068 23.0724 61.6987 22.7926 61.4825 22.5891C61.2663 22.3856 60.961 22.2839 60.5668 22.2839C60.1853 22.2839 59.88 22.3856 59.6511 22.5891C59.4222 22.7926 59.3077 23.0724 59.3077 23.4285V27.7208C59.3077 29.0688 59.6702 30.1244 60.3951 30.8875ZM71.2542 30.2389C72.2208 31.4216 73.7278 32.013 75.7754 32.013C77.1107 32.013 78.1472 31.7714 78.8849 31.2881C79.6225 30.7921 79.9913 30.1435 79.9913 29.3423C79.9913 28.5919 79.737 27.9878 79.2283 27.53C78.7323 27.0722 77.8611 26.6525 76.6147 26.2709C75.839 26.0293 75.2667 25.8385 74.8978 25.6986C74.5417 25.5587 74.2938 25.4252 74.1539 25.298C74.014 25.1708 73.944 25.0246 73.944 24.8593C73.944 24.4396 74.3891 24.2297 75.2794 24.2297C75.7499 24.2297 76.1823 24.2933 76.5766 24.4205C76.9836 24.5477 77.3142 24.7321 77.5686 24.9737C77.8738 25.2789 78.2108 25.4316 78.5796 25.4316C78.8086 25.4316 79.0311 25.3616 79.2473 25.2217C79.5526 25.0309 79.7052 24.783 79.7052 24.4777C79.7052 24.2615 79.6225 24.0453 79.4572 23.8291C79.1138 23.3586 78.5669 22.9834 77.8166 22.7036C77.0662 22.4238 76.2269 22.2839 75.2985 22.2839C74.0903 22.2839 73.1428 22.5128 72.456 22.9707C71.7693 23.4285 71.4259 24.058 71.4259 24.8593C71.4259 25.5715 71.7184 26.1692 72.3034 26.6525C72.8884 27.123 73.8804 27.5745 75.2794 28.0069C76.1696 28.2867 76.761 28.5156 77.0535 28.6937C77.346 28.8717 77.4923 29.0879 77.4923 29.3423C77.4923 29.5458 77.3142 29.7175 76.9581 29.8573C76.602 29.9972 76.1633 30.0672 75.6418 30.0672C75.0314 30.0672 74.5163 29.9782 74.0966 29.8001C73.6897 29.6094 73.27 29.2978 72.8376 28.8654C72.5959 28.6237 72.3352 28.5029 72.0554 28.5029C71.8519 28.5029 71.6421 28.5729 71.4259 28.7127C71.1079 28.9417 70.949 29.2087 70.949 29.514C70.949 29.7302 71.0507 29.9718 71.2542 30.2389ZM81.9924 31.7078C82.2214 31.9113 82.5266 32.013 82.9081 32.013C83.2896 32.013 83.5949 31.9113 83.8238 31.7078C84.0654 31.4916 84.1863 31.2118 84.1863 30.8684V23.6193C84.1863 22.5383 84.4788 21.7116 85.0638 21.1393C85.6488 20.567 86.5009 20.2809 87.6201 20.2809C88.7392 20.2809 89.5913 20.567 90.1763 21.1393C90.7614 21.7116 91.0539 22.5383 91.0539 23.6193V30.8684C91.0539 31.2118 91.1683 31.4916 91.3972 31.7078C91.6389 31.9113 91.9505 32.013 92.332 32.013C92.7135 32.013 93.0188 31.9113 93.2477 31.7078C93.4766 31.5043 93.5911 31.2245 93.5911 30.8684V23.6765C93.5911 21.985 93.0633 20.6624 92.0077 19.7086C90.9521 18.7547 89.4896 18.2778 87.6201 18.2778C85.7505 18.2778 84.288 18.7547 83.2324 19.7086C82.1768 20.6624 81.6491 21.985 81.6491 23.6765V30.8684C81.6491 31.2245 81.7635 31.5043 81.9924 31.7078ZM97.7791 31.4216C98.5931 31.8159 99.5469 32.013 100.641 32.013C101.455 32.013 102.218 31.9049 102.93 31.6887C103.642 31.4725 104.265 31.1609 104.799 30.754C105.054 30.5759 105.181 30.3343 105.181 30.029C105.181 29.7747 105.073 29.5394 104.857 29.3232C104.653 29.1197 104.443 29.018 104.227 29.018C103.998 29.018 103.68 29.1452 103.273 29.3995C102.548 29.8573 101.671 30.0863 100.641 30.0863C99.6614 30.0863 98.9174 29.9082 98.4087 29.5521C97.9127 29.1833 97.6647 28.6428 97.6647 27.9306H103.407C104.119 27.9306 104.666 27.7653 105.047 27.4346C105.442 27.1039 105.639 26.6334 105.639 26.0229C105.639 25.298 105.416 24.6558 104.971 24.0962C104.539 23.5239 103.928 23.0788 103.14 22.7608C102.364 22.4429 101.467 22.2839 100.45 22.2839C98.7966 22.2839 97.5121 22.7163 96.5964 23.5811C95.6934 24.4459 95.2419 25.6605 95.2419 27.2248C95.2419 28.1913 95.4581 29.0371 95.8905 29.762C96.3357 30.4742 96.9652 31.0274 97.7791 31.4216ZM103.102 26.0611C103.013 26.1374 102.86 26.1755 102.644 26.1755H97.7028C97.7028 25.5778 97.9445 25.1009 98.4277 24.7448C98.9237 24.3887 99.5978 24.2107 100.45 24.2107C101.302 24.2107 101.976 24.3378 102.472 24.5922C102.981 24.8465 103.235 25.1963 103.235 25.6414C103.235 25.8322 103.191 25.9721 103.102 26.0611ZM107.321 30.2389C108.288 31.4216 109.795 32.013 111.842 32.013C113.178 32.013 114.214 31.7714 114.952 31.2881C115.689 30.7921 116.058 30.1435 116.058 29.3423C116.058 28.5919 115.804 27.9878 115.295 27.53C114.799 27.0722 113.928 26.6525 112.682 26.2709C111.906 26.0293 111.334 25.8385 110.965 25.6986C110.609 25.5587 110.361 25.4252 110.221 25.298C110.081 25.1708 110.011 25.0246 110.011 24.8593C110.011 24.4396 110.456 24.2297 111.346 24.2297C111.817 24.2297 112.249 24.2933 112.643 24.4205C113.05 24.5477 113.381 24.7321 113.635 24.9737C113.941 25.2789 114.278 25.4316 114.646 25.4316C114.875 25.4316 115.098 25.3616 115.314 25.2217C115.619 25.0309 115.772 24.783 115.772 24.4777C115.772 24.2615 115.689 24.0453 115.524 23.8291C115.181 23.3586 114.634 22.9834 113.883 22.7036C113.133 22.4238 112.294 22.2839 111.365 22.2839C110.157 22.2839 109.21 22.5128 108.523 22.9707C107.836 23.4285 107.493 24.058 107.493 24.8593C107.493 25.5715 107.785 26.1692 108.37 26.6525C108.955 27.123 109.947 27.5745 111.346 28.0069C112.236 28.2867 112.828 28.5156 113.12 28.6937C113.413 28.8717 113.559 29.0879 113.559 29.3423C113.559 29.5458 113.381 29.7175 113.025 29.8573C112.669 29.9972 112.23 30.0672 111.709 30.0672C111.098 30.0672 110.583 29.9782 110.163 29.8001C109.757 29.6094 109.337 29.2978 108.904 28.8654C108.663 28.6237 108.402 28.5029 108.122 28.5029C107.919 28.5029 107.709 28.5729 107.493 28.7127C107.175 28.9417 107.016 29.2087 107.016 29.514C107.016 29.7302 107.118 29.9718 107.321 30.2389ZM125.709 29.9718C125.709 29.7302 125.607 29.5267 125.404 29.3614C125.188 29.1833 124.978 29.0943 124.774 29.0943C124.494 29.0943 124.189 29.2533 123.859 29.5712C123.681 29.7365 123.503 29.8573 123.324 29.9337C123.159 29.9972 122.962 30.029 122.733 30.029C122.441 30.029 122.205 29.9464 122.027 29.781C121.862 29.6157 121.779 29.3931 121.779 29.1134V24.4396H123.611C124.005 24.4396 124.31 24.3505 124.526 24.1725C124.755 23.9944 124.87 23.7592 124.87 23.4667C124.87 23.1614 124.755 22.9198 124.526 22.7417C124.31 22.5637 124.005 22.4747 123.611 22.4747H121.779V19.5941C121.779 19.238 121.671 18.9582 121.455 18.7547C121.239 18.5512 120.934 18.4495 120.539 18.4495C120.158 18.4495 119.853 18.5512 119.624 18.7547C119.395 18.9582 119.28 19.238 119.28 19.5941V22.4747H118.498C118.104 22.4747 117.792 22.5637 117.563 22.7417C117.347 22.9198 117.239 23.1614 117.239 23.4667C117.239 23.7592 117.353 23.9944 117.582 24.1725C117.811 24.3505 118.117 24.4396 118.498 24.4396H119.28V28.9035C119.28 29.8701 119.566 30.6331 120.139 31.1927C120.724 31.7396 121.525 32.013 122.542 32.013C123.178 32.013 123.751 31.8986 124.259 31.6696C124.768 31.4407 125.162 31.1228 125.442 30.7158C125.62 30.4614 125.709 30.2134 125.709 29.9718Z" fill="white"/>
<path fill-rule="evenodd" clip-rule="evenodd" d="M0.00195195 20C0.00195195 31.0457 8.95626 40 20.002 40C31.0476 40 40.002 31.0457 40.002 20C40.002 8.9543 31.0476 0 20.002 0C8.95626 0 0.00195195 8.9543 0.00195195 20ZM9.14505 22.8574C9.14505 25.6977 11.4476 28.0002 14.2879 28.0002C17.1282 28.0002 19.4308 25.6977 19.4308 22.8574C19.4308 20.017 17.1282 17.7145 14.2879 17.7145C11.4476 17.7145 9.14505 20.017 9.14505 22.8574ZM25.7165 28.0002C22.8762 28.0002 20.5736 25.6976 20.5736 22.8573C20.5736 20.017 22.8762 17.7145 25.7165 17.7145C28.5568 17.7145 30.8594 20.017 30.8594 22.8573C30.8594 25.6976 28.5568 28.0002 25.7165 28.0002ZM30.8591 14.5713C30.8591 13.4668 29.9637 12.5713 28.8591 12.5713H11.1448C10.0403 12.5713 9.14482 13.4668 9.14482 14.5713C9.14482 15.6759 10.0403 16.5713 11.1448 16.5713H28.8591C29.9637 16.5713 30.8591 15.6759 30.8591 14.5713Z" fill="#EEF2FF"/>
<rect x="132.436" y="18.6381" width="29.5136" height="13.9611" rx="2.53306" fill="white"/>
<rect x="132.436" y="18.6381" width="29.5136" height="13.9611" rx="2.53306" stroke="white" stroke-width="0.723733"/>
<path d="M137.629 28.7143C137.329 28.7143 137.059 28.6608 136.818 28.5539C136.58 28.4449 136.39 28.2845 136.251 28.0728C136.113 27.861 136.044 27.5999 136.044 27.2894C136.044 27.0221 136.093 26.8011 136.192 26.6263C136.291 26.4516 136.425 26.3118 136.596 26.2069C136.767 26.102 136.959 26.0229 137.173 25.9694C137.389 25.9139 137.612 25.8738 137.842 25.8491C138.12 25.8204 138.345 25.7947 138.517 25.772C138.69 25.7474 138.816 25.7104 138.894 25.661C138.974 25.6096 139.014 25.5305 139.014 25.4235V25.405C139.014 25.1727 138.945 24.9928 138.807 24.8653C138.67 24.7378 138.471 24.6741 138.212 24.6741C137.939 24.6741 137.722 24.7337 137.561 24.853C137.403 24.9722 137.296 25.1131 137.241 25.2755L136.198 25.1275C136.28 24.8396 136.416 24.5991 136.605 24.4058C136.794 24.2105 137.026 24.0645 137.299 23.9678C137.573 23.8692 137.875 23.8198 138.206 23.8198C138.434 23.8198 138.661 23.8465 138.887 23.9C139.114 23.9535 139.32 24.0419 139.507 24.1652C139.695 24.2865 139.845 24.452 139.958 24.6618C140.073 24.8715 140.13 25.1336 140.13 25.4482V28.6187H139.057V27.9679H139.02C138.952 28.0995 138.857 28.2229 138.733 28.338C138.612 28.4511 138.459 28.5426 138.274 28.6125C138.091 28.6803 137.876 28.7143 137.629 28.7143ZM137.919 27.8939C138.143 27.8939 138.338 27.8497 138.502 27.7613C138.666 27.6708 138.793 27.5516 138.881 27.4035C138.972 27.2555 139.017 27.0941 139.017 26.9193V26.3611C138.982 26.3899 138.922 26.4166 138.838 26.4413C138.756 26.466 138.663 26.4875 138.561 26.5061C138.458 26.5246 138.356 26.541 138.255 26.5554C138.155 26.5698 138.067 26.5821 137.993 26.5924C137.827 26.615 137.678 26.652 137.546 26.7034C137.414 26.7548 137.311 26.8268 137.234 26.9193C137.158 27.0098 137.12 27.127 137.12 27.2709C137.12 27.4765 137.195 27.6317 137.345 27.7366C137.496 27.8415 137.687 27.8939 137.919 27.8939ZM142.369 22.3024V28.6187H141.253V22.3024H142.369ZM143.517 30.3951V23.8815H144.615V24.6649H144.68C144.738 24.5497 144.819 24.4274 144.924 24.2978C145.029 24.1663 145.171 24.0542 145.349 23.9617C145.528 23.8671 145.757 23.8198 146.034 23.8198C146.4 23.8198 146.73 23.9134 147.024 24.1005C147.32 24.2855 147.555 24.56 147.727 24.9239C147.902 25.2858 147.989 25.7299 147.989 26.2562C147.989 26.7764 147.904 27.2185 147.733 27.5824C147.563 27.9463 147.33 28.2239 147.036 28.4151C146.742 28.6063 146.409 28.7019 146.037 28.7019C145.766 28.7019 145.541 28.6567 145.362 28.5662C145.183 28.4758 145.039 28.3668 144.93 28.2393C144.823 28.1098 144.74 27.9874 144.68 27.8723H144.634V30.3951H143.517ZM144.612 26.2501C144.612 26.5564 144.656 26.8247 144.742 27.055C144.83 27.2853 144.957 27.4652 145.121 27.5947C145.288 27.7222 145.489 27.7859 145.726 27.7859C145.972 27.7859 146.179 27.7202 146.346 27.5886C146.512 27.4549 146.638 27.273 146.722 27.0427C146.808 26.8103 146.851 26.5461 146.851 26.2501C146.851 25.9561 146.809 25.6949 146.725 25.4667C146.641 25.2385 146.515 25.0596 146.349 24.9301C146.182 24.8006 145.974 24.7358 145.726 24.7358C145.487 24.7358 145.285 24.7985 145.118 24.9239C144.952 25.0493 144.825 25.2251 144.739 25.4513C144.654 25.6775 144.612 25.9437 144.612 26.2501ZM150.062 25.843V28.6187H148.945V22.3024H150.037V24.6864H150.093C150.204 24.4192 150.375 24.2084 150.608 24.0542C150.842 23.8979 151.14 23.8198 151.502 23.8198C151.831 23.8198 152.118 23.8887 152.363 24.0264C152.607 24.1642 152.796 24.3657 152.93 24.6309C153.066 24.8962 153.134 25.22 153.134 25.6024V28.6187H152.017V25.7751C152.017 25.4564 151.935 25.2087 151.771 25.0319C151.608 24.853 151.38 24.7635 151.086 24.7635C150.888 24.7635 150.712 24.8067 150.555 24.8931C150.401 24.9774 150.28 25.0997 150.191 25.2601C150.105 25.4205 150.062 25.6147 150.062 25.843ZM155.635 28.7143C155.335 28.7143 155.064 28.6608 154.824 28.5539C154.585 28.4449 154.396 28.2845 154.256 28.0728C154.119 27.861 154.05 27.5999 154.05 27.2894C154.05 27.0221 154.099 26.8011 154.198 26.6263C154.296 26.4516 154.431 26.3118 154.602 26.2069C154.772 26.102 154.965 26.0229 155.178 25.9694C155.394 25.9139 155.617 25.8738 155.848 25.8491C156.125 25.8204 156.35 25.7947 156.523 25.772C156.696 25.7474 156.821 25.7104 156.899 25.661C156.98 25.6096 157.02 25.5305 157.02 25.4235V25.405C157.02 25.1727 156.951 24.9928 156.813 24.8653C156.675 24.7378 156.477 24.6741 156.218 24.6741C155.944 24.6741 155.727 24.7337 155.567 24.853C155.409 24.9722 155.302 25.1131 155.246 25.2755L154.204 25.1275C154.286 24.8396 154.422 24.5991 154.611 24.4058C154.8 24.2105 155.031 24.0645 155.305 23.9678C155.578 23.8692 155.881 23.8198 156.212 23.8198C156.44 23.8198 156.667 23.8465 156.893 23.9C157.119 23.9535 157.326 24.0419 157.513 24.1652C157.7 24.2865 157.85 24.452 157.963 24.6618C158.078 24.8715 158.136 25.1336 158.136 25.4482V28.6187H157.063V27.9679H157.026C156.958 28.0995 156.862 28.2229 156.739 28.338C156.618 28.4511 156.464 28.5426 156.279 28.6125C156.096 28.6803 155.882 28.7143 155.635 28.7143ZM155.925 27.8939C156.149 27.8939 156.343 27.8497 156.508 27.7613C156.672 27.6708 156.799 27.5516 156.887 27.4035C156.977 27.2555 157.023 27.0941 157.023 26.9193V26.3611C156.988 26.3899 156.928 26.4166 156.844 26.4413C156.762 26.466 156.669 26.4875 156.566 26.5061C156.463 26.5246 156.362 26.541 156.261 26.5554C156.16 26.5698 156.073 26.5821 155.999 26.5924C155.832 26.615 155.683 26.652 155.552 26.7034C155.42 26.7548 155.316 26.8268 155.24 26.9193C155.164 27.0098 155.126 27.127 155.126 27.2709C155.126 27.4765 155.201 27.6317 155.351 27.7366C155.501 27.8415 155.692 27.8939 155.925 27.8939Z" fill="#4F46E5"/>
</svg>
