<svg width="127" height="40" viewBox="0 0 127 40" fill="none" xmlns="http://www.w3.org/2000/svg">
<path fill-rule="evenodd" clip-rule="evenodd" d="M46.4758 14.8882C47.0417 15.5877 47.8239 15.9375 48.8222 15.9375C49.5853 15.9375 50.1671 15.7531 50.5677 15.3842C50.9684 15.0091 51.1687 14.4654 51.1687 13.7532C51.1687 13.4734 51.1337 13.2286 51.0637 13.0187C51.0001 12.8089 50.892 12.6277 50.7394 12.475C50.5932 12.3224 50.4024 12.1984 50.1671 12.1031C49.9382 12.0013 49.6616 11.9155 49.3373 11.8455L48.7268 11.7215C48.4916 11.6706 48.3199 11.588 48.2118 11.4735C48.11 11.3591 48.0592 11.1905 48.0592 10.968C48.0592 10.7136 48.1259 10.5292 48.2595 10.4148C48.3994 10.3003 48.6219 10.2431 48.9271 10.2431C49.2069 10.2431 49.4486 10.2939 49.6521 10.3957C49.8619 10.4911 50.0495 10.6405 50.2148 10.844L51.0924 9.96646C50.6027 9.35601 49.8873 9.05078 48.9462 9.05078C48.2086 9.05078 47.649 9.21929 47.2675 9.55631C46.8859 9.89333 46.6952 10.3861 46.6952 11.0348C46.6952 11.5943 46.8382 12.0331 47.1244 12.351C47.4169 12.6626 47.8716 12.8757 48.4884 12.9901L49.0988 13.1046C49.3405 13.1554 49.5185 13.2445 49.633 13.3717C49.7474 13.4988 49.8047 13.6769 49.8047 13.9058C49.8047 14.4654 49.4867 14.7452 48.8508 14.7452C48.234 14.7452 47.7349 14.5004 47.3533 14.0107L46.4758 14.8882ZM52.1765 9.16524V15.823H53.5405V13.0473H55.782V11.8646H53.5405V10.3575H56.1826V9.16524H52.1765ZM56.8152 14.8882C57.3811 15.5877 58.1633 15.9375 59.1616 15.9375C59.9247 15.9375 60.5065 15.7531 60.9072 15.3842C61.3078 15.0091 61.5081 14.4654 61.5081 13.7532C61.5081 13.4734 61.4731 13.2286 61.4031 13.0187C61.3396 12.8089 61.2315 12.6277 61.0788 12.475C60.9326 12.3224 60.7418 12.1984 60.5065 12.1031C60.2776 12.0013 60.001 11.9155 59.6767 11.8455L59.0663 11.7215C58.831 11.6706 58.6593 11.588 58.5512 11.4735C58.4494 11.3591 58.3986 11.1905 58.3986 10.968C58.3986 10.7136 58.4653 10.5292 58.5989 10.4148C58.7388 10.3003 58.9613 10.2431 59.2666 10.2431C59.5464 10.2431 59.788 10.2939 59.9915 10.3957C60.2013 10.4911 60.3889 10.6405 60.5542 10.844L61.4318 9.96646C60.9421 9.35601 60.2268 9.05078 59.2856 9.05078C58.548 9.05078 57.9884 9.21929 57.6069 9.55631C57.2254 9.89333 57.0346 10.3861 57.0346 11.0348C57.0346 11.5943 57.1777 12.0331 57.4638 12.351C57.7563 12.6626 58.211 12.8757 58.8278 12.9901L59.4382 13.1046C59.6799 13.1554 59.8579 13.2445 59.9724 13.3717C60.0869 13.4988 60.1441 13.6769 60.1441 13.9058C60.1441 14.4654 59.8261 14.7452 59.1903 14.7452C58.5734 14.7452 58.0743 14.5004 57.6927 14.0107L56.8152 14.8882ZM47.0969 31.0598C47.631 31.5685 48.3814 31.8229 49.3479 31.8229H53.85C55.2871 31.8229 56.4127 31.4668 57.2266 30.7546C58.0532 30.0297 58.4666 29.0313 58.4666 27.7595C58.4666 27.1491 58.2695 26.5831 57.8752 26.0617C57.4937 25.5276 56.9977 25.1397 56.3872 24.898V24.879C56.9341 24.6246 57.3792 24.2494 57.7226 23.7534C58.066 23.2447 58.2377 22.6979 58.2377 22.1128C58.2377 20.9301 57.837 20.0271 57.0358 19.404C56.2346 18.7808 55.0964 18.4692 53.6211 18.4692H49.2144C48.2987 18.4692 47.5802 18.7172 47.0587 19.2132C46.55 19.7092 46.2957 20.4023 46.2957 21.2925V28.9232C46.2957 29.8389 46.5627 30.5511 47.0969 31.0598ZM55.1282 23.5054C54.7721 23.8234 54.2697 23.9824 53.6211 23.9824H48.7947V21.3498C48.7947 21.0573 48.8646 20.8283 49.0045 20.663C49.1572 20.4977 49.3606 20.415 49.615 20.415H53.6211C54.3079 20.415 54.8229 20.5549 55.1663 20.8347C55.5097 21.1145 55.6814 21.5469 55.6814 22.1319C55.6814 22.7297 55.497 23.1875 55.1282 23.5054ZM55.9103 27.7977C55.9103 29.1839 55.1472 29.877 53.6211 29.877H49.615C49.3606 29.877 49.1572 29.7944 49.0045 29.6291C48.8646 29.4637 48.7947 29.2348 48.7947 28.9423V25.9091H53.6211C54.346 25.9091 54.9056 26.0744 55.2998 26.4051C55.7068 26.7358 55.9103 27.2 55.9103 27.7977ZM61.2181 30.8881C61.9557 31.6385 62.9795 32.0136 64.2894 32.0136C65.0144 32.0136 65.6566 31.8801 66.2162 31.613C66.7885 31.3332 67.3099 30.9008 67.7805 30.3158V30.869C67.7805 31.2251 67.8886 31.5049 68.1048 31.7084C68.321 31.9119 68.6198 32.0136 69.0014 32.0136C69.3829 32.0136 69.6754 31.9183 69.8789 31.7275C70.0951 31.524 70.2032 31.2379 70.2032 30.869V23.4291C70.2032 23.073 70.0951 22.7932 69.8789 22.5898C69.6627 22.3863 69.3575 22.2845 68.9632 22.2845C68.5817 22.2845 68.2765 22.3863 68.0475 22.5898C67.8186 22.7932 67.7042 23.073 67.7042 23.4291V26.8057C67.7042 27.8104 67.4498 28.5989 66.9411 29.1712C66.4451 29.7435 65.7456 30.0297 64.8427 30.0297C64.1432 30.0297 63.5963 29.8262 63.2021 29.4192C62.8205 29.0122 62.6298 28.4463 62.6298 27.7214V23.4291C62.6298 23.073 62.5217 22.7932 62.3055 22.5898C62.0893 22.3863 61.784 22.2845 61.3898 22.2845C61.0082 22.2845 60.703 22.3863 60.4741 22.5898C60.2452 22.7932 60.1307 23.073 60.1307 23.4291V27.7214C60.1307 29.0695 60.4932 30.125 61.2181 30.8881ZM72.0772 30.2395C73.0437 31.4223 74.5508 32.0136 76.5984 32.0136C77.9337 32.0136 78.9702 31.772 79.7079 31.2887C80.4455 30.7927 80.8143 30.1441 80.8143 29.3429C80.8143 28.5926 80.56 27.9885 80.0512 27.5306C79.5553 27.0728 78.6841 26.6531 77.4377 26.2716C76.662 26.0299 76.0897 25.8392 75.7208 25.6993C75.3647 25.5594 75.1167 25.4258 74.9769 25.2986C74.837 25.1715 74.767 25.0252 74.767 24.8599C74.767 24.4402 75.2121 24.2304 76.1024 24.2304C76.5729 24.2304 77.0053 24.2939 77.3996 24.4211C77.8066 24.5483 78.1372 24.7327 78.3916 24.9743C78.6968 25.2796 79.0338 25.4322 79.4026 25.4322C79.6316 25.4322 79.8541 25.3622 80.0703 25.2223C80.3756 25.0316 80.5282 24.7836 80.5282 24.4783C80.5282 24.2621 80.4455 24.0459 80.2802 23.8297C79.9368 23.3592 79.3899 22.984 78.6396 22.7042C77.8892 22.4244 77.0499 22.2845 76.1215 22.2845C74.9133 22.2845 73.9658 22.5135 73.279 22.9713C72.5923 23.4291 72.2489 24.0587 72.2489 24.8599C72.2489 25.5721 72.5414 26.1698 73.1264 26.6531C73.7114 27.1236 74.7034 27.5751 76.1024 28.0075C76.9926 28.2873 77.584 28.5162 77.8765 28.6943C78.169 28.8723 78.3153 29.0885 78.3153 29.3429C78.3153 29.5464 78.1372 29.7181 77.7811 29.858C77.425 29.9979 76.9863 30.0678 76.4648 30.0678C75.8544 30.0678 75.3393 29.9788 74.9196 29.8007C74.5127 29.61 74.093 29.2984 73.6606 28.866C73.4189 28.6243 73.1582 28.5035 72.8784 28.5035C72.6749 28.5035 72.4651 28.5735 72.2489 28.7134C71.9309 28.9423 71.772 29.2094 71.772 29.5146C71.772 29.7308 71.8737 29.9724 72.0772 30.2395ZM82.8154 31.7084C83.0444 31.9119 83.3496 32.0136 83.7311 32.0136C84.1126 32.0136 84.4179 31.9119 84.6468 31.7084C84.8884 31.4922 85.0093 31.2124 85.0093 30.869V23.6199C85.0093 22.5389 85.3018 21.7122 85.8868 21.1399C86.4718 20.5676 87.3239 20.2815 88.4431 20.2815C89.5622 20.2815 90.4143 20.5676 90.9993 21.1399C91.5843 21.7122 91.8769 22.5389 91.8769 23.6199V30.869C91.8769 31.2124 91.9913 31.4922 92.2202 31.7084C92.4619 31.9119 92.7735 32.0136 93.155 32.0136C93.5365 32.0136 93.8418 31.9119 94.0707 31.7084C94.2996 31.5049 94.4141 31.2251 94.4141 30.869V23.6771C94.4141 21.9857 93.8863 20.663 92.8307 19.7092C91.7751 18.7553 90.3126 18.2784 88.4431 18.2784C86.5735 18.2784 85.111 18.7553 84.0554 19.7092C82.9998 20.663 82.4721 21.9857 82.4721 23.6771V30.869C82.4721 31.2251 82.5865 31.5049 82.8154 31.7084ZM98.6021 31.4223C99.4161 31.8165 100.37 32.0136 101.464 32.0136C102.278 32.0136 103.041 31.9055 103.753 31.6893C104.465 31.4731 105.088 31.1615 105.622 30.7546C105.877 30.5765 106.004 30.3349 106.004 30.0297C106.004 29.7753 105.896 29.54 105.68 29.3238C105.476 29.1203 105.266 29.0186 105.05 29.0186C104.821 29.0186 104.503 29.1458 104.096 29.4001C103.371 29.858 102.494 30.0869 101.464 30.0869C100.484 30.0869 99.7404 29.9088 99.2317 29.5527C98.7357 29.1839 98.4877 28.6434 98.4877 27.9312H104.23C104.942 27.9312 105.489 27.7659 105.87 27.4352C106.265 27.1046 106.462 26.634 106.462 26.0236C106.462 25.2986 106.239 24.6564 105.794 24.0968C105.362 23.5245 104.751 23.0794 103.963 22.7614C103.187 22.4435 102.29 22.2845 101.273 22.2845C99.6196 22.2845 98.3351 22.7169 97.4194 23.5817C96.5164 24.4466 96.0649 25.6611 96.0649 27.2254C96.0649 28.1919 96.2811 29.0377 96.7135 29.7626C97.1587 30.4748 97.7882 31.028 98.6021 31.4223ZM103.925 26.0617C103.836 26.138 103.683 26.1762 103.467 26.1762H98.5258C98.5258 25.5784 98.7675 25.1015 99.2507 24.7454C99.7467 24.3893 100.421 24.2113 101.273 24.2113C102.125 24.2113 102.799 24.3385 103.295 24.5928C103.804 24.8472 104.058 25.1969 104.058 25.642C104.058 25.8328 104.014 25.9727 103.925 26.0617ZM108.144 30.2395C109.111 31.4223 110.618 32.0136 112.665 32.0136C114.001 32.0136 115.037 31.772 115.775 31.2887C116.512 30.7927 116.881 30.1441 116.881 29.3429C116.881 28.5926 116.627 27.9885 116.118 27.5306C115.622 27.0728 114.751 26.6531 113.505 26.2716C112.729 26.0299 112.157 25.8392 111.788 25.6993C111.432 25.5594 111.184 25.4258 111.044 25.2986C110.904 25.1715 110.834 25.0252 110.834 24.8599C110.834 24.4402 111.279 24.2304 112.169 24.2304C112.64 24.2304 113.072 24.2939 113.466 24.4211C113.873 24.5483 114.204 24.7327 114.458 24.9743C114.764 25.2796 115.101 25.4322 115.469 25.4322C115.698 25.4322 115.921 25.3622 116.137 25.2223C116.442 25.0316 116.595 24.7836 116.595 24.4783C116.595 24.2621 116.512 24.0459 116.347 23.8297C116.004 23.3592 115.457 22.984 114.706 22.7042C113.956 22.4244 113.117 22.2845 112.188 22.2845C110.98 22.2845 110.033 22.5135 109.346 22.9713C108.659 23.4291 108.316 24.0587 108.316 24.8599C108.316 25.5721 108.608 26.1698 109.193 26.6531C109.778 27.1236 110.77 27.5751 112.169 28.0075C113.059 28.2873 113.651 28.5162 113.943 28.6943C114.236 28.8723 114.382 29.0885 114.382 29.3429C114.382 29.5464 114.204 29.7181 113.848 29.858C113.492 29.9979 113.053 30.0678 112.532 30.0678C111.921 30.0678 111.406 29.9788 110.986 29.8007C110.58 29.61 110.16 29.2984 109.727 28.866C109.486 28.6243 109.225 28.5035 108.945 28.5035C108.742 28.5035 108.532 28.5735 108.316 28.7134C107.998 28.9423 107.839 29.2094 107.839 29.5146C107.839 29.7308 107.941 29.9724 108.144 30.2395ZM126.532 29.9724C126.532 29.7308 126.43 29.5273 126.227 29.362C126.011 29.1839 125.801 29.0949 125.597 29.0949C125.317 29.0949 125.012 29.2539 124.682 29.5718C124.504 29.7372 124.326 29.858 124.147 29.9343C123.982 29.9979 123.785 30.0297 123.556 30.0297C123.264 30.0297 123.028 29.947 122.85 29.7817C122.685 29.6163 122.602 29.3938 122.602 29.114V24.4402H124.434C124.828 24.4402 125.133 24.3512 125.349 24.1731C125.578 23.9951 125.693 23.7598 125.693 23.4673C125.693 23.1621 125.578 22.9204 125.349 22.7424C125.133 22.5643 124.828 22.4753 124.434 22.4753H122.602V19.5947C122.602 19.2386 122.494 18.9588 122.278 18.7553C122.062 18.5519 121.757 18.4501 121.362 18.4501C120.981 18.4501 120.676 18.5519 120.447 18.7553C120.218 18.9588 120.103 19.2386 120.103 19.5947V22.4753H119.321C118.927 22.4753 118.615 22.5643 118.386 22.7424C118.17 22.9204 118.062 23.1621 118.062 23.4673C118.062 23.7598 118.176 23.9951 118.405 24.1731C118.634 24.3512 118.94 24.4402 119.321 24.4402H120.103V28.9041C120.103 29.8707 120.389 30.6338 120.962 31.1933C121.547 31.7402 122.348 32.0136 123.365 32.0136C124.001 32.0136 124.573 31.8992 125.082 31.6703C125.591 31.4413 125.985 31.1234 126.265 30.7164C126.443 30.4621 126.532 30.2141 126.532 29.9724Z" fill="white"/>
<path fill-rule="evenodd" clip-rule="evenodd" d="M0.824707 20C0.824707 31.0457 9.77901 40 20.8247 40C31.8704 40 40.8247 31.0457 40.8247 20C40.8247 8.9543 31.8704 0 20.8247 0C9.77901 0 0.824707 8.9543 0.824707 20ZM9.96766 22.8568C9.96766 25.6971 12.2702 27.9997 15.1105 27.9997C17.9508 27.9997 20.2534 25.6971 20.2534 22.8568C20.2534 20.0165 17.9508 17.714 15.1105 17.714C12.2702 17.714 9.96766 20.0165 9.96766 22.8568ZM26.5391 27.9997C23.6988 27.9997 21.3963 25.6971 21.3963 22.8568C21.3963 20.0165 23.6988 17.714 26.5391 17.714C29.3794 17.714 31.682 20.0165 31.682 22.8568C31.682 25.6971 29.3794 27.9997 26.5391 27.9997ZM31.6819 14.5714C31.6819 13.4668 30.7865 12.5714 29.6819 12.5714H11.9677C10.8631 12.5714 9.96766 13.4668 9.96766 14.5714C9.96766 15.6759 10.8631 16.5714 11.9677 16.5714H29.6819C30.7865 16.5714 31.6819 15.6759 31.6819 14.5714Z" fill="white"/>
</svg>
