<svg width="29" height="28" viewBox="0 0 29 28" fill="none" xmlns="http://www.w3.org/2000/svg">
<path fill-rule="evenodd" clip-rule="evenodd" d="M0.385986 14C0.385986 21.732 6.654 28 14.386 28C22.118 28 28.386 21.732 28.386 14C28.386 6.26801 22.118 0 14.386 0C6.654 0 0.385986 6.26801 0.385986 14ZM6.78594 15.9998C6.78594 17.988 8.39771 19.5998 10.3859 19.5998C12.3742 19.5998 13.9859 17.988 13.9859 15.9998C13.9859 14.0115 12.3742 12.3998 10.3859 12.3998C8.39771 12.3998 6.78594 14.0115 6.78594 15.9998ZM18.3859 19.5998C16.3977 19.5998 14.7859 17.988 14.7859 15.9998C14.7859 14.0115 16.3977 12.3998 18.3859 12.3998C20.3742 12.3998 21.9859 14.0115 21.9859 15.9998C21.9859 17.988 20.3742 19.5998 18.3859 19.5998ZM21.986 10.2C21.986 9.42677 21.3592 8.79997 20.586 8.79997H8.186C7.41281 8.79997 6.786 9.42677 6.786 10.2C6.786 10.9732 7.4128 11.6 8.186 11.6H20.586C21.3592 11.6 21.986 10.9732 21.986 10.2Z" fill="white"/>
</svg>
