<svg width="575" height="183" viewBox="0 0 575 183" fill="none" xmlns="http://www.w3.org/2000/svg">
<path fill-rule="evenodd" clip-rule="evenodd" d="M208.605 66.0398C211.191 69.2359 214.765 70.834 219.326 70.834C222.813 70.834 225.472 69.9914 227.302 68.3062C229.133 66.5919 230.048 64.1076 230.048 60.8534C230.048 59.5749 229.888 58.4563 229.569 57.4974C229.278 56.5386 228.784 55.7105 228.087 55.0132C227.418 54.3158 226.547 53.7493 225.472 53.3134C224.426 52.8485 223.162 52.4563 221.68 52.1367L218.891 51.5701C217.815 51.3376 217.031 50.9599 216.537 50.4369C216.072 49.9139 215.84 49.1439 215.84 48.127C215.84 46.9648 216.145 46.1221 216.755 45.5991C217.394 45.0761 218.411 44.8146 219.806 44.8146C221.084 44.8146 222.188 45.0471 223.118 45.512C224.077 45.9478 224.934 46.6306 225.69 47.5604L229.699 43.5507C227.462 40.7614 224.193 39.3667 219.893 39.3667C216.523 39.3667 213.966 40.1367 212.222 41.6766C210.479 43.2166 209.607 45.4684 209.607 48.4321C209.607 50.989 210.261 52.9938 211.569 54.4466C212.905 55.8703 214.983 56.8437 217.801 57.3667L220.59 57.8897C221.694 58.1221 222.508 58.5289 223.031 59.11C223.554 59.6912 223.815 60.5047 223.815 61.5507C223.815 64.1076 222.363 65.3861 219.457 65.3861C216.639 65.3861 214.358 64.2674 212.615 62.0301L208.605 66.0398ZM234.653 39.8897V70.311H240.886V57.6282H251.128V52.2238H240.886V45.3376H252.958V39.8897H234.653ZM255.849 66.0398C258.435 69.2359 262.009 70.834 266.57 70.834C270.057 70.834 272.716 69.9914 274.546 68.3062C276.377 66.5919 277.292 64.1076 277.292 60.8534C277.292 59.5749 277.132 58.4563 276.812 57.4974C276.522 56.5386 276.028 55.7105 275.331 55.0132C274.662 54.3158 273.791 53.7493 272.716 53.3134C271.67 52.8485 270.406 52.4563 268.924 52.1367L266.134 51.5701C265.059 51.3376 264.275 50.9599 263.781 50.4369C263.316 49.9139 263.084 49.1439 263.084 48.127C263.084 46.9648 263.389 46.1221 263.999 45.5991C264.638 45.0761 265.655 44.8146 267.05 44.8146C268.328 44.8146 269.432 45.0471 270.362 45.512C271.321 45.9478 272.178 46.6306 272.933 47.5604L276.943 43.5507C274.706 40.7614 271.437 39.3667 267.137 39.3667C263.766 39.3667 261.209 40.1367 259.466 41.6766C257.723 43.2166 256.851 45.4684 256.851 48.4321C256.851 50.989 257.505 52.9938 258.812 54.4466C260.149 55.8703 262.226 56.8437 265.045 57.3667L267.834 57.8897C268.938 58.1221 269.752 58.5289 270.275 59.11C270.798 59.6912 271.059 60.5047 271.059 61.5507C271.059 64.1076 269.607 65.3861 266.701 65.3861C263.883 65.3861 261.602 64.2674 259.858 62.0301L255.849 66.0398ZM211.443 143.517C213.883 145.842 217.312 147.004 221.728 147.004H242.3C248.866 147.004 254.009 145.377 257.728 142.123C261.506 138.81 263.394 134.248 263.394 128.437C263.394 125.648 262.494 123.062 260.692 120.679C258.949 118.239 256.682 116.466 253.893 115.362V115.275C256.392 114.113 258.426 112.399 259.995 110.132C261.564 107.808 262.348 105.309 262.348 102.636C262.348 97.2315 260.518 93.1056 256.857 90.2581C253.196 87.4107 247.995 85.9869 241.254 85.9869H221.118C216.934 85.9869 213.651 87.1201 211.268 89.3865C208.944 91.6528 207.782 94.8199 207.782 98.8877V133.754C207.782 137.938 209.002 141.193 211.443 143.517ZM248.14 108.999C246.513 110.452 244.218 111.178 241.254 111.178H219.201V99.1492C219.201 97.8126 219.52 96.7666 220.159 96.0111C220.857 95.2557 221.787 94.878 222.949 94.878H241.254C244.392 94.878 246.745 95.5172 248.314 96.7957C249.883 98.0741 250.668 100.05 250.668 102.723C250.668 105.454 249.825 107.546 248.14 108.999ZM251.714 128.612C251.714 134.946 248.227 138.113 241.254 138.113H222.949C221.787 138.113 220.857 137.735 220.159 136.98C219.52 136.224 219.201 135.178 219.201 133.842V119.982H241.254C244.566 119.982 247.123 120.738 248.925 122.248C250.784 123.759 251.714 125.88 251.714 128.612ZM275.967 142.733C279.337 146.161 284.015 147.876 290.001 147.876C293.313 147.876 296.248 147.265 298.805 146.045C301.42 144.767 303.802 142.791 305.952 140.118V142.646C305.952 144.273 306.446 145.551 307.434 146.481C308.422 147.411 309.788 147.876 311.531 147.876C313.274 147.876 314.611 147.44 315.541 146.568C316.529 145.638 317.022 144.331 317.022 142.646V108.65C317.022 107.023 316.529 105.745 315.541 104.815C314.553 103.885 313.158 103.42 311.357 103.42C309.613 103.42 308.219 103.885 307.173 104.815C306.127 105.745 305.604 107.023 305.604 108.65V124.079C305.604 128.67 304.441 132.273 302.117 134.888C299.851 137.503 296.654 138.81 292.529 138.81C289.332 138.81 286.834 137.88 285.032 136.021C283.289 134.161 282.417 131.575 282.417 128.263V108.65C282.417 107.023 281.923 105.745 280.935 104.815C279.947 103.885 278.553 103.42 276.751 103.42C275.008 103.42 273.613 103.885 272.567 104.815C271.521 105.745 270.998 107.023 270.998 108.65V128.263C270.998 134.423 272.654 139.246 275.967 142.733ZM325.585 139.769C330.002 145.173 336.888 147.876 346.244 147.876C352.346 147.876 357.082 146.771 360.452 144.563C363.823 142.297 365.508 139.333 365.508 135.672C365.508 132.244 364.346 129.483 362.021 127.391C359.755 125.299 355.774 123.382 350.079 121.638C346.534 120.534 343.919 119.662 342.234 119.023C340.607 118.384 339.474 117.774 338.835 117.193C338.195 116.612 337.876 115.943 337.876 115.188C337.876 113.27 339.91 112.311 343.978 112.311C346.128 112.311 348.103 112.602 349.905 113.183C351.764 113.764 353.275 114.607 354.438 115.711C355.832 117.106 357.372 117.803 359.057 117.803C360.103 117.803 361.12 117.483 362.108 116.844C363.503 115.972 364.2 114.839 364.2 113.445C364.2 112.457 363.823 111.469 363.067 110.481C361.498 108.331 358.999 106.616 355.571 105.338C352.142 104.06 348.307 103.42 344.065 103.42C338.544 103.42 334.215 104.466 331.077 106.558C327.939 108.65 326.37 111.527 326.37 115.188C326.37 118.442 327.706 121.173 330.379 123.382C333.053 125.532 337.585 127.595 343.978 129.57C348.045 130.849 350.748 131.895 352.084 132.708C353.421 133.522 354.089 134.51 354.089 135.672C354.089 136.602 353.275 137.386 351.648 138.026C350.021 138.665 348.016 138.985 345.634 138.985C342.844 138.985 340.491 138.578 338.573 137.764C336.714 136.892 334.796 135.469 332.82 133.493C331.716 132.389 330.525 131.837 329.246 131.837C328.317 131.837 327.358 132.156 326.37 132.796C324.917 133.842 324.191 135.062 324.191 136.457C324.191 137.445 324.656 138.549 325.585 139.769ZM374.651 146.481C375.697 147.411 377.092 147.876 378.835 147.876C380.579 147.876 381.974 147.411 383.02 146.481C384.124 145.493 384.676 144.215 384.676 142.646V109.522C384.676 104.583 386.012 100.805 388.685 98.1903C391.359 95.5753 395.252 94.2678 400.366 94.2678C405.48 94.2678 409.373 95.5753 412.046 98.1903C414.719 100.805 416.056 104.583 416.056 109.522V142.646C416.056 144.215 416.579 145.493 417.625 146.481C418.729 147.411 420.153 147.876 421.896 147.876C423.639 147.876 425.034 147.411 426.08 146.481C427.126 145.551 427.649 144.273 427.649 142.646V109.784C427.649 102.055 425.237 96.0111 420.414 91.6528C415.591 87.2944 408.908 85.1153 400.366 85.1153C391.823 85.1153 385.141 87.2944 380.317 91.6528C375.494 96.0111 373.082 102.055 373.082 109.784V142.646C373.082 144.273 373.605 145.551 374.651 146.481ZM446.786 145.173C450.505 146.975 454.863 147.876 459.861 147.876C463.58 147.876 467.066 147.382 470.321 146.394C473.575 145.406 476.422 143.982 478.863 142.123C480.025 141.309 480.606 140.205 480.606 138.81C480.606 137.648 480.112 136.573 479.125 135.585C478.195 134.655 477.236 134.19 476.248 134.19C475.202 134.19 473.749 134.771 471.89 135.934C468.577 138.026 464.568 139.072 459.861 139.072C455.386 139.072 451.987 138.258 449.662 136.631C447.396 134.946 446.263 132.476 446.263 129.222H472.5C475.754 129.222 478.253 128.466 479.996 126.955C481.798 125.445 482.698 123.294 482.698 120.505C482.698 117.193 481.681 114.258 479.648 111.701C477.672 109.086 474.882 107.052 471.28 105.6C467.735 104.147 463.638 103.42 458.989 103.42C451.435 103.42 445.565 105.396 441.381 109.348C437.255 113.299 435.192 118.849 435.192 125.997C435.192 130.413 436.18 134.277 438.156 137.59C440.19 140.844 443.066 143.372 446.786 145.173ZM471.105 120.679C470.698 121.028 470.001 121.202 469.013 121.202H446.437C446.437 118.471 447.541 116.292 449.749 114.665C452.016 113.038 455.096 112.224 458.989 112.224C462.882 112.224 465.962 112.805 468.229 113.968C470.553 115.13 471.715 116.728 471.715 118.762C471.715 119.633 471.512 120.273 471.105 120.679ZM490.385 139.769C494.802 145.173 501.688 147.876 511.044 147.876C517.146 147.876 521.882 146.771 525.252 144.563C528.623 142.297 530.308 139.333 530.308 135.672C530.308 132.244 529.146 129.483 526.821 127.391C524.555 125.299 520.574 123.382 514.879 121.638C511.335 120.534 508.72 119.662 507.034 119.023C505.407 118.384 504.274 117.774 503.635 117.193C502.996 116.612 502.676 115.943 502.676 115.188C502.676 113.27 504.71 112.311 508.778 112.311C510.928 112.311 512.904 112.602 514.705 113.183C516.565 113.764 518.076 114.607 519.238 115.711C520.632 117.106 522.172 117.803 523.858 117.803C524.904 117.803 525.921 117.483 526.908 116.844C528.303 115.972 529 114.839 529 113.445C529 112.457 528.623 111.469 527.867 110.481C526.298 108.331 523.8 106.616 520.371 105.338C516.942 104.06 513.107 103.42 508.865 103.42C503.344 103.42 499.015 104.466 495.877 106.558C492.739 108.65 491.17 111.527 491.17 115.188C491.17 118.442 492.507 121.173 495.18 123.382C497.853 125.532 502.385 127.595 508.778 129.57C512.846 130.849 515.548 131.895 516.884 132.708C518.221 133.522 518.889 134.51 518.889 135.672C518.889 136.602 518.076 137.386 516.448 138.026C514.821 138.665 512.816 138.985 510.434 138.985C507.645 138.985 505.291 138.578 503.373 137.764C501.514 136.892 499.596 135.469 497.62 133.493C496.516 132.389 495.325 131.837 494.047 131.837C493.117 131.837 492.158 132.156 491.17 132.796C489.717 133.842 488.991 135.062 488.991 136.457C488.991 137.445 489.456 138.549 490.385 139.769ZM574.406 138.549C574.406 137.445 573.941 136.515 573.011 135.759C572.023 134.946 571.064 134.539 570.134 134.539C568.856 134.539 567.461 135.265 565.95 136.718C565.137 137.474 564.323 138.026 563.51 138.374C562.754 138.665 561.854 138.81 560.808 138.81C559.471 138.81 558.396 138.432 557.582 137.677C556.827 136.922 556.449 135.905 556.449 134.626V113.27H564.817C566.619 113.27 568.013 112.863 569.001 112.05C570.047 111.236 570.57 110.161 570.57 108.825C570.57 107.43 570.047 106.326 569.001 105.512C568.013 104.699 566.619 104.292 564.817 104.292H556.449V91.1298C556.449 89.5027 555.955 88.2242 554.967 87.2944C553.98 86.3647 552.585 85.8998 550.783 85.8998C549.04 85.8998 547.645 86.3647 546.599 87.2944C545.553 88.2242 545.03 89.5027 545.03 91.1298V104.292H541.457C539.655 104.292 538.231 104.699 537.185 105.512C536.197 106.326 535.703 107.43 535.703 108.825C535.703 110.161 536.227 111.236 537.273 112.05C538.319 112.863 539.713 113.27 541.457 113.27H545.03V133.667C545.03 138.084 546.338 141.57 548.953 144.127C551.626 146.626 555.287 147.876 559.936 147.876C562.842 147.876 565.457 147.353 567.781 146.307C570.105 145.261 571.907 143.808 573.185 141.948C573.999 140.786 574.406 139.653 574.406 138.549Z" fill="#1E1B4B"/>
<path fill-rule="evenodd" clip-rule="evenodd" d="M0.0112762 91.386C0.0112762 141.857 40.9262 182.772 91.3972 182.772C141.868 182.772 182.783 141.857 182.783 91.386C182.783 40.9149 141.868 0 91.3972 0C40.9262 0 0.0112762 40.9149 0.0112762 91.386ZM41.7881 104.442C41.7881 117.42 52.3091 127.941 65.2873 127.941C78.2656 127.941 88.7866 117.42 88.7866 104.442C88.7866 91.4636 78.2656 80.9426 65.2873 80.9426C52.3091 80.9426 41.7881 91.4636 41.7881 104.442ZM117.508 127.941C104.53 127.941 94.0088 117.42 94.0088 104.442C94.0088 91.4634 104.53 80.9424 117.508 80.9424C130.486 80.9424 141.007 91.4634 141.007 104.442C141.007 117.42 130.486 127.941 117.508 127.941ZM141.007 66.5807C141.007 61.5336 136.915 57.4421 131.868 57.4421H50.9264C45.8793 57.4421 41.7878 61.5336 41.7878 66.5807C41.7878 71.6278 45.8793 75.7193 50.9264 75.7193H131.868C136.915 75.7193 141.007 71.6278 141.007 66.5807Z" fill="#4F46E5"/>
</svg>
